<svg width="20px" height="20px" viewBox="0 0 18 18" fill="none" xmlns="http://www.w3.org/2000/svg">
<path d="M16.708 9.184c0-.544-.043-1.09-.135-1.626H9.195v3.08h4.225a3.71 3.71 0 0 1-1.564 2.432v1.999h2.52c1.481-1.394 2.332-3.451 2.332-5.885Z" fill="#4285F4">
</path>
<path d="M9.195 17c2.11 0 3.889-.708 5.185-1.931l-2.52-1.999c-.702.488-1.607.764-2.662.764-2.04 0-3.77-1.408-4.392-3.3h-2.6v2.06C3.533 15.295 6.238 17 9.196 17Z" fill="#34A853">
</path>
<path d="M4.804 10.533a4.895 4.895 0 0 1 0-3.063V5.41H2.206a8.17 8.17 0 0 0 0 7.184l2.598-2.06Z" fill="#FBBC04">
</path>
<path d="M9.195 4.166a4.199 4.199 0 0 1 3 1.2l2.234-2.284A7.426 7.426 0 0 0 9.195 1C6.238 1 3.533 2.705 2.205 5.41l2.599 2.06c.618-1.896 2.35-3.304 4.391-3.304Z" fill="#EA4335">
</path>
</svg>